<svg width="2525" height="1219" viewBox="0 0 2525 1219" fill="none" xmlns="http://www.w3.org/2000/svg">
<path d="M21.5 355.355C43.8622 262.18 66.4557 95.7617 221.5 57.0006C376.544 18.2396 413.908 494.648 399 883.501C389.061 898.408 394.948 1191.7 368.113 1197.66C334.57 1205.12 196.67 1089.58 282.392 851.048C350.969 660.225 489.863 423.683 550.738 329.265C590.493 262.179 646.15 107.882 550.738 27.3772C455.326 -53.1277 537.822 665.254 590 1071.5C597.257 1128 615.13 1198.94 617.824 1197.66C673 1171.5 788.954 1150.02 870.949 926.396C936.544 747.5 847.5 707.31 781.5 747.5C715.5 787.69 675.652 927.143 744.23 1049.39C812.807 1171.64 857.283 1055.6 870.949 982.303C889.584 1022.06 1167.22 1003.17 1203 982.303C1238.78 961.431 1109 1038.94 1029 926.396C943 766.942 1149.96 825.12 1173.5 756.5M1173.5 756.5C1214.5 637 1131 261 1098 154.096C1081.85 219.94 1084.05 574.621 1173.5 756.5ZM1173.5 756.5L1222 969.5C1289.09 952.107 1507.7 792.988 1330 587C1248.5 492.528 1240.24 906.955 1400.5 906.955C1528.71 906.955 1589.3 760.768 1598 682.5C1595.52 620.383 1548.09 566.518 1497.4 569.5C1446.71 572.482 1460 712.5 1497.4 828.687C1537.16 923.105 1644.12 1039.4 1745.5 780C1846.88 520.599 1839.92 232.114 1745.5 129C1769.1 317.836 1639.88 681.096 1783 851.048C1926.12 1021 2034.22 896 2009 772C1979 624.5 1846.17 510.399 1792.5 698.241C1738.83 886.083 1889.43 933.769 1918 933.769C2081.99 987.19 2568.81 687.913 2289.81 542.413C2193.45 492.161 2087.14 731.784 2109.5 828.687C2124.41 900.246 2209.43 852.292 2238 828.687C2266.57 805.083 2329 736.187 2358.5 676.687C2382.5 751.687 2447.52 824.058 2503.42 697.339" stroke="url(#paint0_linear_301_7)" stroke-width="41.7427" stroke-linecap="round"/>
<defs>
<linearGradient id="paint0_linear_301_7" x1="2589.42" y1="609.572" x2="21.5" y2="609.572" gradientUnits="userSpaceOnUse">
<stop stop-color="#540977"/>
<stop offset="1"/>
</linearGradient>
</defs>
</svg>
