<svg width="213" height="103" viewBox="0 0 213 103" fill="none" xmlns="http://www.w3.org/2000/svg">
<path d="M2.5 30.2168C4.37845 22.39 6.27633 8.41067 19.3002 5.1547C32.3241 1.89872 35.4627 41.9175 34.2104 74.5816C33.3756 75.8339 33.8701 100.471 31.6159 100.972C28.7983 101.598 17.2145 91.8924 24.4152 71.8556C30.1758 55.8262 41.843 35.9564 46.9566 28.0252C50.296 22.3899 54.9713 9.42879 46.9566 2.66629C38.9419 -4.09621 45.8716 56.2486 50.2546 90.3738C50.8642 95.1199 52.3656 101.079 52.5919 100.972C57.2267 98.7739 66.967 96.9693 73.8547 78.1849C79.3648 63.1574 71.8849 59.7814 66.3409 63.1574C60.7968 66.5334 57.4496 78.2476 63.2101 88.5165C68.9707 98.7853 72.7067 89.0382 73.8547 82.8811C75.42 86.2206 98.7418 84.6343 101.747 82.8811C104.753 81.1279 93.8512 87.6389 87.1311 78.1849C79.9071 64.7906 97.2917 69.6776 99.2693 63.9134M99.2693 63.9134C102.713 53.8753 95.6993 22.2909 92.9272 13.3108C91.5706 18.8418 91.7555 48.6354 99.2693 63.9134ZM99.2693 63.9134L103.343 81.8057C108.979 80.3447 127.343 66.9785 112.415 49.6752C105.569 41.7395 104.875 76.5518 118.338 76.5518C129.107 76.5518 134.197 64.2719 134.928 57.6974C134.719 52.4794 130.735 47.9548 126.477 48.2052C122.22 48.4557 123.336 60.2174 126.477 69.9772C129.817 77.9085 138.802 87.6774 147.318 65.8875C155.834 44.0975 155.249 19.8644 147.318 11.2027C149.301 27.0651 138.446 57.5794 150.468 71.8556C162.49 86.1318 171.571 75.6316 169.452 65.2155C166.932 52.8253 155.774 43.2407 151.266 59.0196C146.758 74.7986 159.408 78.8043 161.808 78.8043C175.583 83.2917 216.477 58.152 193.04 45.9299C184.946 41.7087 176.016 61.8373 177.894 69.9772C179.147 75.9883 186.288 71.96 188.689 69.9772C191.089 67.9944 196.333 62.2071 198.811 57.2091C200.827 63.5092 206.288 69.5884 210.984 58.9439" stroke="url(#paint0_linear_301_7)" stroke-width="3.50643" stroke-linecap="round"/>
<defs>
<linearGradient id="paint0_linear_301_7" x1="218.208" y1="51.5713" x2="2.5" y2="51.5713" gradientUnits="userSpaceOnUse">
<stop stop-color="#540977"/>
<stop offset="1"/>
</linearGradient>
</defs>
</svg>
